<svg xmlns="http://www.w3.org/2000/svg" viewBox="0 0 128 128"><defs><style>.cls-1,.cls-2{fill:none;stroke:#1d1d1b;stroke-linecap:round;stroke-width:2px;}.cls-1{stroke-linejoin:round;}.cls-2{stroke-miterlimit:10;}</style></defs><g id="Capa_2" data-name="Capa 2"><path class="cls-1" d="M32.13,77.16h37.2a8.06,8.06,0,0,1,7.93,6.62,7.56,7.56,0,0,1,.13,1.44,8.05,8.05,0,0,1-8.06,8.06H51.19"/><path class="cls-1" d="M106,75.29a8.06,8.06,0,0,1,10.43,12.23l-15.06,15.06-.27.25a8,8,0,0,1-6,2.64H58.57"/><line class="cls-1" x1="82.32" y1="89.34" x2="76.26" y2="89.34"/><path class="cls-1" d="M106,75.29a6.36,6.36,0,0,0-1,.83L91.79,89.34H82.32L95.55,76.12q.2-.2.39-.36a8,8,0,0,1,10-.47Z"/><path class="cls-1" d="M68.35,93.28h1a8.06,8.06,0,0,0,6.93-3.94H91.79l6.86-6.86"/><path class="cls-1" d="M77.26,83.78l7.66-7.66a8,8,0,0,1,11-.36"/><path class="cls-1" d="M32.13,77.16a8,8,0,0,0-5.7,2.36l-2,2-13,13a8.06,8.06,0,0,0,0,11.4l12,12a8.06,8.06,0,0,0,11.4,0l12.56-12.56"/><line class="cls-1" x1="55.15" y1="105.47" x2="50.81" y2="105.47"/><path class="cls-2" d="M74.56,57.1s3.84-8-.7-14.15c-5.56-7.55-12.71-4.6-16.47-5.62-2.86-.78-4.41-8.1,3.21-8.55,6.68-.39,5.62,3.12,9,5.28,2.29,1.47,8-1.81,5.12-7.22-3.1-5.91-9-5.91-9-7C66,15.73,65,12.3,61.15,12.3s-4.26,2.14-4.56,7.76c-.06,1.17-4.46.87-7.63,4.52-2.75,3.18-8.49,20.85,13.29,21.75a5.54,5.54,0,0,1,3.67,1.51c4.86,4.76-4.61,13-12.34,2.53-2.07-2.81-10.49.65-6.22,6.73,5.82,8.28,8.74,4.55,9,6.82.29,2.71-.45,7.93,4.81,7.93,5.78,0,3.31-7.09,5.38-8,2.62-1.18,3.36-1.6,3.36-1.6"/><path class="cls-2" d="M72.12,60.83a5,5,0,0,0,1.34-1.39"/></g></svg>