<svg xmlns="http://www.w3.org/2000/svg" viewBox="0 0 128 128"><defs><style>.cls-1,.cls-2,.cls-3{fill:none;stroke:#1d1d1b;stroke-width:2px;}.cls-1,.cls-3{stroke-miterlimit:10;}.cls-2,.cls-3{stroke-linecap:round;}.cls-2{stroke-linejoin:round;}</style></defs><g id="Capa_2" data-name="Capa 2"><path class="cls-1" d="M103.42,59.87,97.9,30.48a5.84,5.84,0,0,0-5.75-4.77H35.85a5.84,5.84,0,0,0-5.75,4.77L24.58,59.87"/><path class="cls-1" d="M103.67,60.09,99.43,38.51a6,6,0,0,0-6-4.77H34.58a6,6,0,0,0-6,4.77L24.33,60.09"/><line class="cls-2" x1="79.36" y1="59.87" x2="83.79" y2="59.87"/><line class="cls-2" x1="74.43" y1="59.87" x2="75.98" y2="59.87"/><path class="cls-2" d="M86.38,59.87h14.74a14.77,14.77,0,0,1,14.77,14.77V92.58H12.11V74.64A14.77,14.77,0,0,1,26.88,59.87H71.42"/><path class="cls-1" d="M36.52,92.58A14.78,14.78,0,0,1,51.08,80.35H76.92A14.78,14.78,0,0,1,91.48,92.58"/><line class="cls-2" x1="58.49" y1="102" x2="50.19" y2="102"/><line class="cls-2" x1="47.66" y1="102" x2="45.87" y2="102"/><path class="cls-2" d="M42.63,102H13a4.71,4.71,0,0,1-4.71-4.71h0A4.71,4.71,0,0,1,13,92.58H115a4.71,4.71,0,0,1,4.71,4.71h0A4.71,4.71,0,0,1,115,102H61.55"/><path class="cls-1" d="M19.68,102H38a0,0,0,0,1,0,0v6.39a4,4,0,0,1-4,4H23.68a4,4,0,0,1-4-4V102A0,0,0,0,1,19.68,102Z"/><path class="cls-1" d="M93.46,102h18.3a0,0,0,0,1,0,0v6.39a4,4,0,0,1-4,4H97.46a4,4,0,0,1-4-4V102A0,0,0,0,1,93.46,102Z"/><path class="cls-3" d="M111,79.22a8.07,8.07,0,0,0-.29-1.2"/><path class="cls-3" d="M31.69,79.22A7,7,0,0,0,31.4,78"/><path class="cls-3" d="M109.36,85.12A7.29,7.29,0,0,0,111,81.8"/><path class="cls-3" d="M109.1,75.29a7.42,7.42,0,1,0-1.47,11.35"/><path class="cls-3" d="M30.09,85.12a7.41,7.41,0,0,0,1.6-3.32"/><path class="cls-3" d="M29.84,75.29a7.43,7.43,0,1,0-1.48,11.35"/><path class="cls-1" d="M26.81,47.49l-6.1-2a4.94,4.94,0,0,0-1.89-.38h-5.6A4.94,4.94,0,0,0,8.29,50h0a4.93,4.93,0,0,0,4.93,4.93h5.6a4.94,4.94,0,0,0,1.89-.38l3.87,4.29Z"/><path class="cls-1" d="M101.19,47.49l6.1-2a4.94,4.94,0,0,1,1.89-.38h5.6A4.94,4.94,0,0,1,119.71,50h0a4.93,4.93,0,0,1-4.93,4.93h-5.6a4.94,4.94,0,0,1-1.89-.38l-3.87,4Z"/></g></svg>