<svg id="Capa_3" data-name="Capa 3" xmlns="http://www.w3.org/2000/svg" viewBox="0 0 200 200"><defs><style>.cls-1{fill:#56a044;}.cls-2{fill:#6aba5a;}</style></defs><path class="cls-1" d="M149,64.73C121.49,87,97.13,80,94.2,81.94s-5.49,10.49-6.88,10.4a2.12,2.12,0,0,1-.45-.07c-1.15-.22-1.9-1-1.35-2s4.21-7.46,5.29-8.55c0,0-7.72-41,33.45-56,35.1-12.78,37.37-20.38,37.27-22.35a1.37,1.37,0,0,0,0-.31C162.58,6,175.43,43.36,149,64.73Z"/><path class="cls-2" d="M148.88,33.68c-16.7,10.86-52.53,39.26-56.2,47.93S87.32,92,86.87,92.27c-1.15-.22-1.9-1-1.35-2s4.21-7.46,5.29-8.55c0,0-7.72-41,33.45-56,35.1-12.78,37.37-20.38,37.27-22.35C162,6.5,164,23.83,148.88,33.68Z"/><path class="cls-1" d="M135.65,114.12c-6.51,16.79-18.53,27.9-30.48,17.85,0,0-3.81,3.94-4.43,5.45-.26.62-1,.42-1.58-.1a.62.62,0,0,1-.18-.66c.33-1.07,5-5.16,4.41-6.18s-6-7.27-3-16.49,18.1-28,52.2-23.71l.64.06S142.17,97.38,135.65,114.12Z"/><path class="cls-2" d="M106.57,126.42s-.74,3.81-5.56,9.09a16.84,16.84,0,0,1-1.85,1.81.62.62,0,0,1-.18-.66c.33-1.07,5-5.16,4.41-6.18s-6-7.27-3-16.49,18.1-28,52.2-23.71C147.85,90,117.5,89.47,106.57,126.42Z"/><path class="cls-1" d="M69.69,157.59a2.33,2.33,0,0,1-2.22-.5c-1-1-3.09-6.37-3.54-7.48,0,0-11.25,1.85-16.39-4S20,111,51.08,73.26c-.23.64-2.82,9,9,25.44,12.28,17.06,27.91,33.81,7.07,49.83a13.26,13.26,0,0,0,2.45,6.25C70.76,156.49,70.43,157.32,69.69,157.59Z"/><path class="cls-2" d="M69.69,157.59a2.33,2.33,0,0,1-2.22-.5c-1-1-3.09-6.37-3.54-7.48,0,0-11.25,1.85-16.39-4S20,111,51.08,73.26c-.61,1-13.47,22.77-2.68,45.62,11,23.38,15.23,27.25,17.63,32C68.26,155.38,68.68,155,69.69,157.59Z"/><path class="cls-1" d="M102.1,186.09c-15.27,9.16-33.44,5.55-34.82,6.45a15.17,15.17,0,0,0-1.81,1.69c-.83,1-1.7,1.87-2.43,2a.55.55,0,0,1-.22,0,1.07,1.07,0,0,1-1.07-1.6,1.17,1.17,0,0,1,.3-.38c1.05-.9,3.93-2.43,4.39-3.69,0,0-2.59-19.21,24.21-25.11,22.06-4.82,21.53-13,21.35-14.13a6.41,6.41,0,0,1,.15.77C113.05,156.65,116.16,177.61,102.1,186.09Z"/><path class="cls-2" d="M110.62,159.61c-5.44,12-18.68,8.44-30,18.44s-11.93,12.3-13,13.1c-.42.38-2.56,2.41-3.45,3.46-.54.61-.94,1.22-1.36,1.61a1.07,1.07,0,0,1-1.07-1.6,1.17,1.17,0,0,1,.3-.38c1.05-.9,3.93-2.43,4.39-3.69,0,0-2.59-19.21,24.21-25.11,22.06-4.82,21.53-13,21.35-14.13a6.41,6.41,0,0,1,.15.77A15.33,15.33,0,0,1,110.62,159.61Z"/></svg>