<svg width="42" height="44" viewBox="0 0 42 44" fill="none" xmlns="http://www.w3.org/2000/svg">
<path d="M29.7497 3.66634C32.0684 3.67359 34.2901 4.64176 35.9297 6.3594C37.5692 8.07703 38.4934 10.4046 38.5003 12.8337V31.1663C38.4934 33.5954 37.5692 35.923 35.9297 37.6406C34.2901 39.3582 32.0684 40.3264 29.7497 40.3337H12.2503C9.93163 40.3264 7.7099 39.3582 6.07034 37.6406C4.43077 35.923 3.50661 33.5954 3.49969 31.1663V12.8337C3.50661 10.4046 4.43077 8.07703 6.07034 6.3594C7.7099 4.64176 9.93163 3.67359 12.2503 3.66634H29.7497ZM29.7497 0H12.2503C5.5125 0 0 5.775 0 12.8337V31.1663C0 38.225 5.5125 44 12.2503 44H29.7497C36.4875 44 42 38.225 42 31.1663V12.8337C42 5.775 36.4875 0 29.7497 0Z" fill="black"/>
<path d="M32.3747 12.834C31.8555 12.834 31.348 12.6727 30.9163 12.3705C30.4846 12.0684 30.1482 11.6389 29.9495 11.1364C29.7508 10.6339 29.6988 10.0809 29.8001 9.54749C29.9014 9.01404 30.1514 8.52404 30.5185 8.13944C30.8856 7.75485 31.3534 7.49294 31.8626 7.38683C32.3718 7.28072 32.8996 7.33518 33.3792 7.54332C33.8589 7.75146 34.2689 8.10393 34.5573 8.55617C34.8457 9.0084 34.9997 9.54009 34.9997 10.084C35.0004 10.4453 34.933 10.8033 34.8014 11.1373C34.6697 11.4713 34.4764 11.7747 34.2325 12.0303C33.9886 12.2858 33.6989 12.4883 33.3801 12.6262C33.0613 12.7642 32.7196 12.8348 32.3747 12.834ZM21 14.6667C22.3845 14.6667 23.738 15.0968 24.8892 15.9026C26.0404 16.7084 26.9376 17.8538 27.4674 19.1939C27.9973 20.5339 28.1359 22.0085 27.8658 23.4311C27.5957 24.8536 26.929 26.1604 25.95 27.186C24.971 28.2116 23.7236 28.9101 22.3657 29.1931C21.0078 29.476 19.6002 29.3308 18.3211 28.7757C17.042 28.2207 15.9487 27.2807 15.1795 26.0747C14.4103 24.8687 13.9997 23.4508 13.9997 22.0003C14.0017 20.056 14.7398 18.1918 16.0522 16.8169C17.3646 15.4421 19.144 14.6687 21 14.6667ZM21 11.0003C18.9233 11.0003 16.8932 11.6455 15.1665 12.8542C13.4398 14.0629 12.094 15.7808 11.2993 17.7908C10.5045 19.8008 10.2966 22.0125 10.7018 24.1463C11.1069 26.2801 12.1069 28.2401 13.5754 29.7785C15.0438 31.3169 16.9148 32.3645 18.9516 32.789C20.9884 33.2134 23.0996 32.9956 25.0182 32.163C26.9368 31.3304 28.5767 29.9205 29.7304 28.1116C30.8842 26.3027 31.5 24.1759 31.5 22.0003C31.5 19.0829 30.3938 16.2851 28.4246 14.2222C26.4555 12.1593 23.7848 11.0003 21 11.0003Z" fill="black"/>
</svg>
