<svg xmlns="http://www.w3.org/2000/svg" viewBox="0 0 128 128"><defs><style>.cls-1{fill:none;stroke:#1d1d1b;stroke-linecap:round;stroke-linejoin:round;stroke-width:2px;}</style></defs><g id="Capa_2" data-name="Capa 2"><polyline class="cls-1" points="104.23 63.62 104.23 95 74.27 112.29 74.27 112.3 44.31 95 14.34 112.3 14.34 43.1 44.31 25.8 74.27 43.1 90.21 33.89"/><line class="cls-1" x1="44.31" y1="25.8" x2="44.31" y2="57.39"/><line class="cls-1" x1="74.4" y1="43.1" x2="74.4" y2="101.61"/><line class="cls-1" x1="44.31" y1="95" x2="44.31" y2="71.25"/><line class="cls-1" x1="44.31" y1="67.35" x2="44.31" y2="62.67"/><line class="cls-1" x1="74.4" y1="110.62" x2="74.4" y2="105.94"/><line class="cls-1" x1="114.04" y1="43.33" x2="114.26" y2="42.87"/><path class="cls-1" d="M115.59,40.3c1.9-3.86,3.27-7.5,3.27-10a14.63,14.63,0,0,0-29.25,0C89.61,38.4,104.24,59,104.24,59A105.7,105.7,0,0,0,112.7,45.7"/><circle class="cls-1" cx="104.24" cy="28.32" r="5.76"/></g></svg>