<svg xmlns="http://www.w3.org/2000/svg" viewBox="0 0 128 128"><defs><style>.cls-1{fill:#1d1d1b;}</style></defs><g id="Capa_2" data-name="Capa 2"><path class="cls-1" d="M108.26,53.21v3.34c-4.59,0-6.79-3.75-8.74-7s-3.4-5.38-6-5.38-4,2-6,5.38-4.16,7-8.81,7S72,52.82,70,49.55s-3.4-5.38-6-5.38-3.94,2-5.94,5.38-4.18,7-8.81,7-6.85-3.73-8.81-7-3.38-5.38-5.94-5.38-3.95,2-5.94,5.38-4.19,7-8.81,7h-.06V53.21h.06c2.56,0,3.94-2,5.94-5.38s4.18-7,8.81-7,6.85,3.72,8.81,7,3.38,5.38,5.94,5.38,4-2,5.94-5.38,4.18-7,8.81-7,6.86,3.72,8.81,7,3.4,5.38,5.94,5.38,4-2,6-5.38,4.17-7,8.81-7,6.85,3.72,8.81,7S105.73,53.18,108.26,53.21Z"/><path class="cls-1" d="M108.26,68.52v3.34c-4.59,0-6.79-3.75-8.74-7s-3.4-5.38-6-5.38-4,2-6,5.38-4.16,7-8.81,7S72,68.13,70,64.86s-3.4-5.38-6-5.38-3.94,2-5.94,5.38-4.18,7-8.81,7-6.85-3.73-8.81-7-3.38-5.38-5.94-5.38-3.95,2-5.94,5.38-4.19,7-8.81,7h-.06V68.52h.06c2.56,0,3.94-2,5.94-5.38s4.18-7,8.81-7,6.85,3.73,8.81,7,3.38,5.38,5.94,5.38,4-2,5.94-5.38,4.18-7,8.81-7,6.86,3.73,8.81,7,3.4,5.38,5.94,5.38,4-2,6-5.38,4.17-7,8.81-7,6.85,3.73,8.81,7S105.73,68.49,108.26,68.52Z"/><path class="cls-1" d="M108.26,83.83v3.34c-4.59,0-6.79-3.74-8.74-7s-3.4-5.37-6-5.37-4,2-6,5.37-4.16,7-8.81,7S72,83.44,70,80.17s-3.4-5.37-6-5.37-3.94,2-5.94,5.37-4.18,7-8.81,7-6.85-3.73-8.81-7-3.38-5.37-5.94-5.37-3.95,2-5.94,5.37-4.19,7-8.81,7h-.06V83.83h.06c2.56,0,3.94-2,5.94-5.37s4.18-7,8.81-7,6.85,3.72,8.81,7,3.38,5.37,5.94,5.37,4-2,5.94-5.37,4.18-7,8.81-7,6.86,3.72,8.81,7,3.4,5.37,5.94,5.37,4-2,6-5.37,4.17-7,8.81-7,6.85,3.72,8.81,7S105.73,83.8,108.26,83.83Z"/></g></svg>