<svg xmlns="http://www.w3.org/2000/svg" viewBox="0 0 128 128"><defs><style>.cls-1{fill:#1d1d1b;}</style></defs><g id="Capa_2" data-name="Capa 2"><path class="cls-1" d="M89.27,67.13c3.14,0,6.28-.1,9.41,0a4.75,4.75,0,0,1,4.64,4.09,5.16,5.16,0,0,1-8.22,5.1c-.67-.51-1.37-1.16-.73-2.07s1.31-.3,1.95.09c1.31.79,2.66,1,3.89-.06a2.4,2.4,0,0,0,.65-2.92c-.7-1.71-2.16-1.93-3.68-1.92-5.28,0-10.56.16-15.84.14-1.27,0-3.45.64-3.44-1.26s2.18-1.18,3.45-1.23c2.63-.11,5.28,0,7.92,0Z"/><path class="cls-1" d="M20,80.86a4.78,4.78,0,0,1-5.77-.39c-.67-.51-1.37-1.16-.74-2.07s1.31-.3,2,.09c1.31.78,2.65,1,3.89-.06A2.4,2.4,0,0,0,20,75.51c-.69-1.71-2.16-1.93-3.67-1.92-3.91,0-7.81.09-11.72.13V71.19l3.8,0v0c3.14,0,6.28-.11,9.41,0a4.76,4.76,0,0,1,4.65,4.09A4.85,4.85,0,0,1,20,80.86Z"/><path class="cls-1" d="M59.26,58.08c3.14,0,6.28-.11,9.41,0a4.76,4.76,0,0,1,4.65,4.09,4.84,4.84,0,0,1-2.45,5.48,4.77,4.77,0,0,1-5.77-.38c-.68-.51-1.37-1.16-.74-2.07s1.31-.3,2,.09c1.3.78,2.65,1,3.89-.06a2.41,2.41,0,0,0,.64-2.92c-.69-1.71-2.16-1.93-3.67-1.92-5.28,0-10.57.15-15.85.14-1.26,0-3.44.64-3.44-1.26s2.18-1.18,3.45-1.23c2.64-.11,5.28,0,7.92,0Z"/><path class="cls-1" d="M108.87,65.35c-3.06,0-6.11,0-9.16,0-.8,0-1.87.07-1.84-1.11s1.08-1.09,1.88-1.09c5.61,0,11.22,0,16.84,0a7.11,7.11,0,0,0,2.66-.32,2.51,2.51,0,0,0,1.51-3.63,2.6,2.6,0,0,0-3.7-1.41,5,5,0,0,0-1,.68c-.59.47-1.2.66-1.71,0s-.13-1.23.33-1.77c1.88-2.22,6-1.86,7.79.68a5.09,5.09,0,0,1-3.92,8c-3.21.17-6.44,0-9.65,0Z"/><path class="cls-1" d="M98.17,59.09c-3,0-6.09,0-9.14,0-.86,0-2.09.15-2-1.14s1.26-1.08,2.12-1.08c5.43,0,10.87,0,16.3,0a14.94,14.94,0,0,0,2.22-.08,2.79,2.79,0,0,0,2.44-2.14,2.56,2.56,0,0,0-.85-2.68,2.7,2.7,0,0,0-3.2-.4c-.8.36-1.77,1.69-2.46.28s.7-2,1.74-2.49a5.07,5.07,0,0,1,6.88,6.29A4.55,4.55,0,0,1,107.79,59c-3.2.12-6.41,0-9.62,0Z"/><path class="cls-1" d="M28.58,70.27c-3,0-6.1,0-9.16,0-.79,0-1.86.08-1.83-1.11s1.08-1.09,1.88-1.09c5.61,0,11.22,0,16.83,0A6.94,6.94,0,0,0,39,67.69a2.51,2.51,0,0,0,1.51-3.63,2.59,2.59,0,0,0-3.7-1.4,4.55,4.55,0,0,0-1,.67c-.59.47-1.2.67-1.71,0s-.13-1.23.32-1.77c1.88-2.22,6-1.86,7.8.68a5.09,5.09,0,0,1-3.92,8c-3.21.17-6.44,0-9.66,0Z"/><path class="cls-1" d="M17.89,66.31c-3.05,0-6.1,0-9.14,0-.86,0-2.09.15-2-1.15S8,64.07,8.82,64.07c5.43,0,10.86,0,16.3,0A14.75,14.75,0,0,0,27.33,64a2.81,2.81,0,0,0,2.45-2.15,2.56,2.56,0,0,0-.85-2.68,2.7,2.7,0,0,0-3.2-.4c-.8.37-1.77,1.69-2.46.29S24,57,25,56.52a5.07,5.07,0,0,1,6.89,6.29,4.56,4.56,0,0,1-4.38,3.42c-3.2.12-6.42,0-9.62,0Z"/><path class="cls-1" d="M89,65.33c-1.72,0-3.45,0-5.17,0-.69,0-1.38-.22-1.37-1.09s.72-1.06,1.4-1.06q5.41,0,10.84,0c.68,0,1.37.24,1.36,1.1s-.72,1-1.39,1c-1.89,0-3.78,0-5.67,0Z"/><path class="cls-1" d="M50.62,64.3c-1.72,0-3.45,0-5.17,0-.69,0-1.38-.22-1.37-1.08s.72-1.06,1.4-1.07c3.61,0,7.23,0,10.84,0,.68,0,1.37.25,1.36,1.1s-.71,1-1.39,1.06c-1.89,0-3.78,0-5.67,0Z"/><path class="cls-1" d="M82.82,59.15c-.69,0-1.38,0-2.07,0-.27,0-.55-.22-.54-1.08s.28-1.06.56-1.07c1.44,0,2.88,0,4.33,0,.27,0,.54.25.54,1.11s-.29,1-.56,1c-.75,0-1.51,0-2.26,0Z"/><path class="cls-1" d="M67.38,56.62c-3,0-6.09,0-9.14,0-.86,0-2.08.15-2.05-1.15s1.27-1.08,2.12-1.08c5.44,0,10.87,0,16.3,0a16.42,16.42,0,0,0,2.22-.08,2.8,2.8,0,0,0,2.44-2.15,2.56,2.56,0,0,0-.85-2.68,2.7,2.7,0,0,0-3.2-.4c-.79.37-1.77,1.69-2.46.28s.7-2,1.74-2.49A4.91,4.91,0,0,1,80,47.7a4.86,4.86,0,0,1,1.36,5.42A4.55,4.55,0,0,1,77,56.54c-3.21.12-6.42,0-9.63,0Z"/><path class="cls-1" d="M52,56.69c-.69,0-1.38,0-2.06,0-.28,0-.55-.21-.55-1.08s.29-1.06.56-1.06c1.44,0,2.88,0,4.33,0,.27,0,.54.25.54,1.11s-.28,1-.55,1c-.76,0-1.51,0-2.27,0Z"/></g></svg>