<svg xmlns="http://www.w3.org/2000/svg" viewBox="0 0 128 128"><defs><style>.cls-1{fill:none;stroke:#1d1d1b;stroke-linecap:round;stroke-linejoin:round;stroke-width:2px;}</style></defs><g id="Capa_2" data-name="Capa 2"><path class="cls-1" d="M96.66,87.25c7.89-12.07,13.18-29.23,9.65-53.18,0,0-30.92-9-42.31-19.11C52.61,25.08,21.69,34.07,21.69,34.07,12.42,97,64,113,64,113A66.46,66.46,0,0,0,89.84,95.91"/><path class="cls-1" d="M99.53,62.13a75.2,75.2,0,0,0-.07-23.22S73.55,31.38,64,22.9c-9.55,8.48-35.46,16-35.46,16C20.77,91.69,64,105.1,64,105.1A56.17,56.17,0,0,0,90.86,84.26"/><path class="cls-1" d="M94.73,77.54A54.59,54.59,0,0,0,97,72"/><rect class="cls-1" x="51.24" y="56.58" width="25.4" height="19.43"/><line class="cls-1" x1="72.18" y1="54.23" x2="72.18" y2="56.58"/><path class="cls-1" d="M55.69,56.58V47.37a7,7,0,0,1,7-7h2.49a7,7,0,0,1,7,7v2.94"/><path class="cls-1" d="M67.52,72.23l-.74-5.68a3.82,3.82,0,0,0-2.85-6.39h0A3.85,3.85,0,0,0,60.09,64a3.81,3.81,0,0,0,1,2.55l-.73,5.68Z"/></g></svg>