<svg xmlns="http://www.w3.org/2000/svg" viewBox="0 0 128 128"><defs><style>.cls-1{fill:#1d1d1b;}</style></defs><g id="Capa_2" data-name="Capa 2"><path class="cls-1" d="M23,58.14q-1.68,1.38-3.5,3.07c-1.5-.12-3.23-.26-5-.29a17.49,17.49,0,0,0-1.89-.1,29.38,29.38,0,0,0-5.75.69c-.57.11-1.79.45-2.67.66V58.23c1-.1,3.43-.29,5.51-.41s3.9-.22,5.06-.28l.64,0h.38l5,.43.83.07Z"/><path class="cls-1" d="M46.47,58.44l0,0,.09,0Z"/><path class="cls-1" d="M123,56.72v3.43c-1.22-.23-2.43-.49-3.64-.79-2.33-.58-4.72-1-7-1.36l-.11,0a12,12,0,0,0-1.66-.14,14.74,14.74,0,0,0-4.38.69c-.75.22-1.5.48-2.26.75A15.94,15.94,0,0,1,98,60.43a6.4,6.4,0,0,1-6-3.65c-1.14-2.36-2.29-4.88-3.64-8-.19-.43-.37-.86-.56-1.31a7.31,7.31,0,0,0-1.14-1.86,7.47,7.47,0,0,0-8.15-2.25,20.59,20.59,0,0,0-4.35,2.18,37,37,0,0,0-3.5,2.61c-.72.6-1.41,1.2-2.05,1.76l-.5.44a67.3,67.3,0,0,1-9.47,7.19,33.53,33.53,0,0,1-10.25,4c-.44-1-.89-2-1.38-3L47,58.34a36.4,36.4,0,0,0,6.74-2.08,35.58,35.58,0,0,0,10.62-7c.62-.58,1.23-1.13,1.81-1.66.88-.78,1.72-1.5,2.54-2.16,1-.8,2-1.52,2.9-2.18.54-.38,1.09-.74,1.63-1.09s.81-.49,1.23-.71A24.82,24.82,0,0,1,80,39.3,9.28,9.28,0,0,1,82.85,39a7.74,7.74,0,0,1,3.33,1,8.49,8.49,0,0,1,3.23,3.28l.14.24c.54,1,1,2,1.52,3,.66,1.4,1.27,2.83,1.86,4.23.26.61.51,1.22.78,1.83,2.06,4.77,3.81,5.66,8.22,3.9l.58-.24A17.47,17.47,0,0,1,106,55.08a20.15,20.15,0,0,1,3.53-.47,25.55,25.55,0,0,1,4.48.22,33.67,33.67,0,0,1,3.77.73Q120.42,56.22,123,56.72Z"/><path class="cls-1" d="M46.45,58.4l0,0h.07Z"/><path class="cls-1" d="M84.54,70.8c-1.11.87-2.26,1.82-3.46,2.89-2.14-.34-4.24-.75-6.32-1.27-2.35-.57-4.75-1-7.07-1.36h-.08c-3-.5-5.61.33-8.3,1.29a15.74,15.74,0,0,1-5.9,1.15,6.41,6.41,0,0,1-6-3.64c-1-2-1.95-4.14-3.06-6.69-.06-.15-.13-.3-.2-.45s-.13-.3-.2-.46l-.75-1.76A7.06,7.06,0,0,0,42.37,59c-.11-.15-.22-.3-.34-.44s-.27-.3-.42-.45a7.41,7.41,0,0,0-7.69-1.75,19.67,19.67,0,0,0-3.19,1.47q-.35.19-.69.42c-.23.13-.45.27-.66.41a40.86,40.86,0,0,0-4,3.08l-.5.43-.5.43-.36.32a70.42,70.42,0,0,1-10,7.62,33.32,33.32,0,0,1-9.78,4V71a35,35,0,0,0,15.43-8.6l.17-.15.46-.44.48-.43c1.25-1.14,2.44-2.16,3.59-3.07l.56-.44.55-.43c1-.78,2.06-1.49,3.07-2.12a23.53,23.53,0,0,1,6.83-2.9,8.54,8.54,0,0,1,4.43,0,8.1,8.1,0,0,1,5,4c.25.44.5.89.73,1.34l.23.46a.54.54,0,0,1,.07.13l.15.3c.52,1.06,1,2.14,1.47,3.21.07.15.14.3.2.45l.19.45.48,1.13c.26.61.51,1.21.77,1.81,2.15,5,4,5.74,8.8,3.66,4.42-1.89,9.26-2.09,15.23-.62A105.55,105.55,0,0,0,84.54,70.8Z"/><path class="cls-1" d="M46.45,58.4l0,0h.07Z"/><path class="cls-1" d="M123,72.33v3c0,.12,0,.24,0,.36-3.19-.17-6.35-.47-9.47-.77-1.21-.11-2.41-.23-3.62-.33l-1.06-.1c-.59-1.34-1.12-2.48-1.65-3.52l3.54.31c3.91.33,7.93.68,12,1Z"/><rect class="cls-1" x="4.27" y="85.2" width="118.74" height="3.81"/><path class="cls-1" d="M118.14,82.92c-4.84,2.07-6.65,1.32-8.8-3.66l-.78-1.83c-.36-.85-.72-1.71-1.11-2.58-.67-1.52-1.38-3-2.19-4.49l-.21-.38A8,8,0,0,0,95.65,66a23.74,23.74,0,0,0-6.82,2.9q-.9.56-1.8,1.2l-.58.41-.56.42c-1.16.86-2.34,1.82-3.58,2.9-.15.14-.3.28-.46.41l-.46.42c-.47.42-1,.86-1.44,1.33a36.31,36.31,0,0,1-8.19,5.83,38.29,38.29,0,0,1-12.24,3.88h12c1-.46,1.88-1,2.8-1.5a71.12,71.12,0,0,0,10-7.63l1.54-1.33.5-.42.52-.43a30.7,30.7,0,0,1,4.33-3c.27-.15.54-.3.82-.44s.61-.3.93-.44.83-.35,1.26-.5a7.42,7.42,0,0,1,9.29,4.11l.21.48c1.51,3.57,2.76,6.32,4,8.88a6.24,6.24,0,0,0,1.74,2.22h7.32l.73-.41.66-.4h0l5.62-2.75v-1.7C122.77,80.73,119.06,82.52,118.14,82.92Z"/></g></svg>