<svg xmlns="http://www.w3.org/2000/svg" viewBox="0 0 128 128"><defs><style>.cls-1{fill:none;stroke:#599381;stroke-linecap:round;stroke-linejoin:round;stroke-width:2px;}</style></defs><g id="Capa_2" data-name="Capa 2"><polyline class="cls-1" points="24.3 107.95 9.96 108 38.13 30.1 91.17 30.1 100.21 56.19"/><line class="cls-1" x1="30.73" y1="107.93" x2="27.51" y2="107.94"/><polyline class="cls-1" points="105.83 72.41 118.03 107.63 89.14 107.73 38.8 107.9 35.37 107.91"/><line class="cls-1" x1="101.35" y1="59.47" x2="103.02" y2="64.3"/><line class="cls-1" x1="103.98" y1="67.2" x2="104.48" y2="68.63"/><polygon class="cls-1" points="70.88 50.45 57.12 50.45 61.14 37.98 66.86 37.98 70.88 50.45"/><polygon class="cls-1" points="66.59 34.8 61.41 34.8 62.92 30.1 65.08 30.1 66.59 34.8"/><polyline class="cls-1" points="78.14 71.73 84.28 90.78 43.72 90.78 55.56 54.03 72.44 54.03 75.74 64.3"/><line class="cls-1" x1="76.65" y1="67.12" x2="77.18" y2="68.75"/><polygon class="cls-1" points="89.14 107.73 38.8 107.9 43.16 94.37 84.84 94.37 89.14 107.73"/></g></svg>