<svg xmlns="http://www.w3.org/2000/svg" viewBox="0 0 128 128"><defs><style>.cls-1{fill:none;stroke:#1d1d1b;stroke-linecap:round;stroke-linejoin:round;stroke-width:2px;}</style></defs><g id="Capa_2" data-name="Capa 2"><polyline class="cls-1" points="106.28 40.57 90.88 40.57 90.88 65.69 106.28 65.69"/><rect class="cls-1" x="21.72" y="68.82" width="21.33" height="10.72"/><line class="cls-1" x1="24.4" y1="66.35" x2="24.4" y2="68.82"/><path class="cls-1" d="M74,59.27H90.88V47H36.69A12.28,12.28,0,0,0,24.4,59.27V61.6"/><line class="cls-1" x1="62.33" y1="59.27" x2="67.32" y2="59.27"/><path class="cls-1" d="M40.38,68.82V63.27a4,4,0,0,1,4-4H56.81"/><polyline class="cls-1" points="73.62 33.8 73.62 46.99 57.64 46.99 57.64 33.8"/><line class="cls-1" x1="73.62" y1="25.06" x2="57.64" y2="25.06"/><polyline class="cls-1" points="57.08 16.33 53.21 16.33 53.21 25.07 78.05 25.07 78.05 16.33 63.18 16.33"/><polygon class="cls-1" points="54.64 33.8 76.62 33.8 73.62 25.07 57.64 25.07 54.64 33.8"/><circle class="cls-1" cx="37.38" cy="20.7" r="4.99"/><path class="cls-1" d="M23.38,103.29c0-5,7.79-18.25,9-18.25,2.16,0,9,13.27,9,18.25a9,9,0,1,1-18,0Z"/><circle class="cls-1" cx="93.88" cy="20.7" r="4.99"/><line class="cls-1" x1="42.38" y1="20.7" x2="53.21" y2="20.7"/><line class="cls-1" x1="78.05" y1="20.7" x2="88.88" y2="20.7"/></g></svg>