<svg xmlns="http://www.w3.org/2000/svg" viewBox="0 0 128 128"><defs><style>.cls-1{fill:none;stroke:#1d1d1b;stroke-linecap:round;stroke-miterlimit:10;stroke-width:2px;}</style></defs><g id="Capa_2" data-name="Capa 2"><circle class="cls-1" cx="64" cy="92.64" r="5.78"/><path class="cls-1" d="M82.23,67.18a38.7,38.7,0,0,1,11,8.72"/><path class="cls-1" d="M34.81,75.9A38.81,38.81,0,0,1,77.55,65.06"/><path class="cls-1" d="M76.82,79a27.18,27.18,0,0,1,7.7,6.14"/><path class="cls-1" d="M43.48,85.15a27.28,27.28,0,0,1,30.05-7.62"/><path class="cls-1" d="M83.51,50.28A46.78,46.78,0,0,1,102.06,65.7"/><path class="cls-1" d="M77.55,48c1.16.33,1.68.5,2.8.92"/><path class="cls-1" d="M25.94,65.7A46.75,46.75,0,0,1,74.27,47.15"/><path class="cls-1" d="M40.21,35.24A52.81,52.81,0,0,1,110,56.55"/><path class="cls-1" d="M18,56.55a53,53,0,0,1,15.74-17.4"/></g></svg>