<svg xmlns="http://www.w3.org/2000/svg" viewBox="0 0 128 128"><defs><style>.cls-1,.cls-2{fill:none;stroke:#1d1d1b;stroke-miterlimit:10;stroke-width:2px;}.cls-1{stroke-linecap:round;}</style></defs><g id="Capa_2" data-name="Capa 2"><path class="cls-1" d="M86.05,41.59c-.38-.45-.78-.9-1.19-1.33"/><path class="cls-1" d="M81.44,37.33a28.52,28.52,0,0,0-35,45,2,2,0,0,1,.76,1.56v17.65a12,12,0,0,0,12,12h9.45a12,12,0,0,0,12-12V84.68a2,2,0,0,1,.82-1.61,28.52,28.52,0,0,0,6.34-39.14"/><line class="cls-2" x1="47.23" y1="88.37" x2="80.68" y2="88.37"/><line class="cls-1" x1="47.23" y1="96.96" x2="67.4" y2="96.96"/><line class="cls-1" x1="48.15" y1="104.38" x2="80.34" y2="104.38"/><line class="cls-1" x1="73.47" y1="96.96" x2="80.5" y2="96.96"/><circle class="cls-1" cx="55.9" cy="63.9" r="5.48"/><circle class="cls-1" cx="72.98" cy="63.9" r="5.48"/><line class="cls-1" x1="61.39" y1="62.85" x2="61.39" y2="87.52"/><line class="cls-1" x1="67.5" y1="62.85" x2="67.5" y2="74.14"/><line class="cls-1" x1="67.5" y1="80.26" x2="67.5" y2="88.19"/><line class="cls-1" x1="67.5" y1="76.89" x2="67.5" y2="77.41"/><line class="cls-1" x1="55.9" y1="69.39" x2="72.98" y2="69.39"/><line class="cls-1" x1="64.15" y1="14.42" x2="64.15" y2="27.27"/><line class="cls-1" x1="99.12" y1="28.93" x2="90.57" y2="37.49"/><line class="cls-1" x1="29.28" y1="28.93" x2="37.84" y2="37.49"/><line class="cls-1" x1="14.3" y1="62.84" x2="26.96" y2="62.85"/><line class="cls-1" x1="29.26" y1="96.96" x2="37.81" y2="88.37"/><line class="cls-1" x1="98.97" y1="96.96" x2="90.41" y2="88.37"/><line class="cls-1" x1="101.04" y1="62.84" x2="113.7" y2="62.85"/></g></svg>