<svg width="42" height="44" viewBox="0 0 42 44" fill="none" xmlns="http://www.w3.org/2000/svg">
<path fill-rule="evenodd" clip-rule="evenodd" d="M35.8809 6.39384C33.9394 4.35891 31.6328 2.74637 29.0941 1.64907C26.5553 0.55176 23.8344 -0.00864915 21.0881 0.000100905C9.56248 0.000100905 0.179999 9.78026 0.175312 21.8036C0.170213 25.6321 1.13352 29.3937 2.96718 32.7054L0 44L11.0859 40.9681C14.1545 42.7097 17.5896 43.6212 21.0796 43.6199H21.0881C32.6127 43.6199 41.9943 33.8388 41.9999 21.8164C42.0069 18.9491 41.4695 16.109 40.419 13.4613C39.3685 10.8136 37.8259 8.41115 35.8809 6.39384ZM21.0881 39.9398H21.0806C17.9694 39.9408 14.9147 39.0685 12.2343 37.4138L11.5997 37.0209L5.02124 38.8202L6.77717 32.1328L6.36373 31.4453C4.6241 28.5599 3.70241 25.2163 3.70593 21.8036C3.70593 11.8123 11.5068 3.68313 21.0946 3.68313C25.694 3.67452 30.1083 5.58017 33.3666 8.98091C36.6249 12.3817 38.4603 16.999 38.4693 21.8174C38.4655 31.8097 30.6684 39.9398 21.0881 39.9398ZM30.6215 26.3676C30.0993 26.0946 27.5277 24.7766 27.0515 24.5949C26.5752 24.4132 26.2237 24.3218 25.8759 24.8679C25.5281 25.414 24.5259 26.6358 24.2212 27.0041C23.9165 27.3724 23.6118 27.4126 23.0896 27.1396C22.5674 26.8666 20.8828 26.292 18.8868 24.4358C17.3334 22.991 16.2853 21.2075 15.9806 20.6624C15.6759 20.1173 15.9478 19.8217 16.2093 19.5506C16.4446 19.306 16.7315 18.9142 16.9931 18.5959C17.2546 18.2777 17.3418 18.0499 17.5153 17.6865C17.6887 17.3231 17.6025 17.0049 17.4721 16.7328C17.3418 16.4608 16.2965 13.7786 15.8615 12.6874C15.4368 11.6247 15.0065 11.7691 14.6859 11.7524C14.3812 11.7367 14.0297 11.7328 13.6837 11.7328C13.4193 11.74 13.1591 11.8042 12.9194 11.9215C12.6797 12.0388 12.4656 12.2065 12.2906 12.4144C11.8115 12.9604 10.4615 14.2804 10.4615 16.9597C10.4615 19.639 12.3365 22.2318 12.5953 22.5952C12.854 22.9586 16.2796 28.4616 21.5212 30.8216C22.4945 31.2583 23.489 31.6412 24.5006 31.9688C25.7521 32.3832 26.8912 32.3253 27.7912 32.1848C28.7952 32.0287 30.8849 30.8668 31.319 29.594C31.7531 28.3211 31.754 27.2309 31.6237 27.0041C31.4934 26.7772 31.1446 26.6397 30.6215 26.3676Z" fill="black"/>
</svg>
